<?xml version="1.0" standalone="no"?>
<!DOCTYPE svg PUBLIC "-//W3C//DTD SVG 20010904//EN"
 "http://www.w3.org/TR/2001/REC-SVG-20010904/DTD/svg10.dtd">
<svg version="1.0" xmlns="http://www.w3.org/2000/svg"
 width="300.000000pt" height="206.000000pt" viewBox="0 0 300.000000 206.000000"
 preserveAspectRatio="xMidYMid meet">
<metadata>
Created by potrace 1.10, written by Peter Selinger 2001-2011
</metadata>
<g transform="translate(0.000000,206.000000) scale(0.100000,-0.100000)"
fill="currentColor" stroke="currentColor">
<path d="M1280 2050 c0 -5 -3 -9 -7 -8 -5 0 -15 -1 -23 -4 -8 -3 -42 -13 -74
-23 -126 -37 -273 -151 -366 -285 -45 -64 -47 -65 -106 -76 -77 -13 -176 -67
-221 -118 -20 -23 -49 -70 -65 -106 -16 -36 -34 -74 -40 -86 -5 -11 -32 -32
-58 -45 -27 -13 -51 -32 -54 -43 -2 -10 -10 -16 -17 -14 -11 4 -33 -18 -111
-106 -23 -25 -64 -110 -86 -178 -28 -85 -29 -245 -2 -328 35 -105 81 -180 155
-256 77 -77 133 -113 234 -146 65 -22 77 -22 678 -25 388 -2 622 1 639 7 14 6
28 19 31 30 7 28 17 25 62 -15 21 -19 41 -35 44 -35 4 0 38 -21 77 -46 101
-65 217 -117 265 -117 99 -1 356 154 491 295 64 67 154 197 154 221 0 7 6 21
14 32 16 23 45 127 56 200 4 28 8 197 9 376 l2 327 -27 31 c-14 17 -30 29 -34
26 -5 -3 -11 -1 -15 5 -3 5 -30 10 -58 10 -29 1 -72 5 -97 11 -25 5 -54 11
-65 14 -58 11 -206 77 -226 101 -6 8 -18 14 -25 14 -8 0 -14 5 -14 10 0 6 -5
10 -10 10 -6 0 -38 23 -71 50 -33 28 -69 50 -79 50 -11 0 -30 5 -44 11 -34 16
-54 -1 -48 -40 4 -26 -3 -34 -69 -80 -40 -28 -78 -50 -83 -48 -6 2 -13 14 -14
28 -6 36 -64 117 -129 180 -64 62 -181 135 -231 145 -18 4 -32 10 -32 14 0 6
-52 18 -97 22 -7 1 -13 5 -13 10 0 4 -45 8 -100 8 -60 0 -100 -4 -100 -10z
m314 -70 c127 -42 245 -133 326 -251 l39 -56 -46 -22 c-43 -21 -46 -21 -59 -4
-13 17 -15 17 -28 1 -7 -10 -21 -18 -31 -18 -10 0 -26 -7 -35 -15 -28 -26 -68
3 -54 39 9 23 35 28 55 10 37 -34 88 8 55 45 -20 22 -70 28 -81 11 -9 -15 -42
-12 -48 4 -9 23 21 42 44 28 19 -12 49 -16 49 -7 0 10 -65 64 -77 65 -7 0 -13
4 -13 8 0 5 -11 14 -24 20 -20 9 -27 7 -48 -16 -14 -15 -28 -35 -31 -44 -8
-22 -33 -23 -41 -3 -3 10 1 18 12 22 9 4 29 19 45 34 28 28 28 28 6 39 -15 9
-24 9 -32 1 -7 -7 -54 -11 -118 -11 -104 0 -108 1 -128 26 -20 25 -21 25 -76
13 -52 -12 -54 -13 -39 -30 18 -20 13 -46 -11 -55 -21 -8 -47 16 -42 38 3 10
3 18 1 18 -6 0 -114 -69 -114 -72 0 -9 269 4 288 14 43 22 81 -30 40 -55 -13
-9 -21 -7 -36 6 -16 14 -41 17 -169 17 -147 0 -150 0 -173 -25 l-23 -25 80 0
c59 0 84 -4 93 -15 10 -12 47 -15 211 -15 134 0 205 4 218 12 10 6 26 8 35 5
25 -10 17 -51 -10 -55 -29 -4 -132 -112 -136 -142 -4 -29 -38 -39 -57 -16 -17
21 4 60 28 53 13 -3 36 15 75 59 l57 64 -209 0 c-174 0 -212 3 -222 15 -9 11
-34 15 -96 15 l-84 0 -31 -42 -30 -43 178 -3 178 -2 37 -37 c27 -26 38 -46 38
-67 0 -16 8 -38 17 -48 22 -24 6 -53 -28 -53 -19 0 -25 6 -27 28 -2 15 1 27 7
27 6 0 11 14 11 32 0 22 -10 42 -32 65 l-32 33 -176 0 -177 0 -15 -38 -15 -38
39 1 c21 0 38 3 38 6 0 4 7 9 15 13 19 7 46 -20 39 -39 -7 -17 -54 -21 -54 -5
0 6 -18 10 -40 10 -39 0 -40 -1 -40 -35 l0 -35 68 0 68 0 64 -65 c41 -41 73
-65 87 -65 29 0 41 -36 19 -58 -20 -20 -49 -6 -54 25 -2 11 -31 48 -66 82 -63
62 -63 63 -125 64 -57 2 -61 1 -61 -21 0 -33 20 -52 42 -39 12 8 21 7 32 -2
21 -18 20 -48 -1 -60 -21 -11 -53 3 -53 24 0 8 -9 20 -20 27 -17 11 -20 24
-20 90 0 43 -2 78 -4 78 -2 0 -11 3 -20 6 -14 5 -16 -7 -16 -92 l0 -98 37 -38
c33 -34 43 -38 85 -38 27 0 57 5 67 12 35 22 77 -16 51 -47 -16 -19 -49 -19
-56 0 -5 11 -22 15 -63 15 -54 0 -59 2 -99 43 l-42 43 0 103 0 102 -27 -3 -28
-3 -1 -155 -2 -155 61 -62 c63 -65 88 -75 127 -51 27 17 61 -13 44 -40 -15
-23 -52 -28 -60 -8 -3 9 -18 16 -32 16 -19 0 -44 18 -89 62 l-63 62 0 163 c0
90 -2 163 -5 163 -2 0 -16 -5 -30 -12 -25 -11 -25 -11 -25 -146 0 -113 3 -137
16 -147 24 -17 9 -55 -22 -55 -29 0 -42 25 -26 51 13 20 17 269 5 269 -3 0
-15 -7 -25 -17 -15 -14 -18 -32 -18 -128 0 -111 0 -111 -30 -140 -16 -16 -30
-36 -30 -44 1 -23 24 -51 42 -51 36 0 46 -51 12 -64 -25 -9 -44 5 -44 34 0 15
-7 33 -15 40 -23 19 -18 51 14 85 27 28 29 37 33 127 3 55 1 95 -4 92 -16 -10
-38 -76 -42 -127 -4 -49 -5 -51 -47 -66 l-44 -17 -3 -93 c-2 -75 0 -97 13
-112 9 -9 15 -26 13 -36 -5 -27 -43 -28 -62 -1 -16 22 -15 24 4 37 18 12 20
24 20 102 0 49 -3 89 -6 89 -3 0 -19 -8 -35 -17 -24 -15 -29 -24 -29 -57 0
-36 -7 -47 -57 -98 -32 -32 -65 -58 -74 -58 -25 0 -41 -48 -47 -142 -4 -79 -3
-88 12 -88 16 0 17 11 15 93 -3 75 -1 92 11 92 12 0 14 -13 12 -67 -2 -38 0
-68 5 -68 16 0 91 75 95 95 5 27 61 29 66 2 5 -26 -18 -49 -43 -43 -16 4 -32
-5 -60 -34 -22 -22 -45 -40 -52 -40 -7 0 -13 -7 -13 -15 0 -12 14 -15 67 -15
64 0 69 2 105 37 22 21 38 47 38 60 0 28 28 45 52 32 24 -13 23 -46 -1 -58
-10 -6 -21 -8 -24 -5 -3 3 -24 -15 -47 -40 l-43 -46 -94 0 c-92 0 -94 -1 -91
-22 3 -22 8 -23 112 -26 70 -2 113 1 122 9 21 17 46 3 42 -23 -3 -23 -48 -40
-48 -19 0 7 -37 11 -105 11 -58 0 -105 -3 -105 -6 0 -19 67 -126 96 -155 l34
-33 26 26 c15 15 27 37 27 52 0 14 1 26 2 26 1 0 16 -5 34 -11 27 -9 32 -16
29 -38 -2 -21 -8 -26 -30 -26 -26 -1 -68 -29 -68 -46 0 -9 137 -79 156 -79 17
0 19 61 2 78 -8 8 -8 15 2 27 12 14 15 14 29 1 12 -12 12 -19 3 -28 -7 -7 -12
-29 -12 -50 0 -36 2 -38 30 -38 l30 0 0 99 c0 56 -4 103 -10 106 -16 10 -12
42 7 49 9 4 23 0 32 -8 12 -12 12 -20 3 -38 -6 -13 -13 -65 -14 -116 l-3 -92
30 0 c30 0 30 1 26 46 -3 41 0 50 32 82 19 21 37 46 39 57 4 25 40 31 58 10
18 -21 1 -50 -28 -50 -12 0 -35 -14 -52 -30 -24 -23 -30 -37 -30 -72 0 -42 0
-43 35 -43 21 0 35 5 35 12 0 7 19 32 42 55 l42 43 100 0 100 0 48 47 c26 26
48 55 48 65 0 34 56 35 67 1 5 -15 -27 -45 -42 -39 -7 2 -34 -18 -61 -45 l-48
-49 -105 0 -105 0 -38 -37 c-21 -20 -38 -41 -38 -45 0 -4 31 -8 68 -8 60 0 71
3 92 25 23 24 28 25 151 25 101 0 129 -3 139 -15 16 -19 5 -34 -12 -17 -19 19
-252 16 -268 -3 -11 -13 33 -15 367 -15 l380 0 52 -51 c28 -29 50 -53 49 -53
-2 -1 -291 1 -643 4 -630 5 -641 5 -698 27 -84 32 -147 75 -215 148 -173 185
-199 461 -63 674 45 70 148 164 215 195 40 19 56 32 56 46 0 41 43 131 86 179
57 64 143 107 229 116 l65 7 31 58 c91 171 289 301 484 319 94 8 201 -3 279
-29z m-278 -122 c10 -17 -26 -40 -42 -27 -7 6 -10 17 -7 25 6 17 39 19 49 2z
m208 -58 c-4 -17 -2 -36 5 -43 17 -21 3 -27 -62 -27 -57 0 -59 1 -52 23 4 12
6 34 6 50 -1 26 0 27 54 27 l55 0 -6 -30z m671 0 c0 -8 -8 -16 -17 -18 -13 -2
-18 3 -18 18 0 15 5 20 18 18 9 -2 17 -10 17 -18z m-505 -4 c0 -20 -19 -31
-32 -18 -6 6 -7 15 -4 21 10 16 36 13 36 -3z m622 -72 c137 -122 310 -195 502
-210 45 -4 87 -11 94 -17 19 -15 17 -672 -3 -768 -56 -263 -244 -478 -549
-625 -53 -26 -106 -47 -119 -47 -34 1 -183 73 -279 136 -234 152 -364 350
-397 599 -6 43 -11 213 -10 378 0 351 -3 340 93 340 169 0 384 90 534 223 29
26 57 47 62 47 5 0 37 -25 72 -56z m-1198 -50 c30 -11 16 -20 -35 -23 -28 -1
-57 3 -65 10 -11 9 -15 8 -20 -5 -3 -9 -10 -13 -16 -10 -5 3 -4 11 3 20 12 14
102 20 133 8z m566 -2 c0 -4 -5 -13 -10 -18 -7 -7 -6 -20 5 -40 8 -16 17 -28
20 -27 3 1 14 -1 26 -5 42 -16 -26 -40 -113 -42 -29 0 -105 -59 -78 -60 10 0
11 -3 3 -8 -6 -4 -13 -26 -16 -49 -3 -34 -1 -40 12 -35 13 5 14 3 4 -9 -13
-16 -21 -168 -10 -186 5 -7 4 -13 0 -13 -5 0 -8 -54 -7 -120 1 -69 -2 -123 -8
-126 -5 -3 -19 3 -31 13 -45 41 -115 -15 -89 -71 15 -32 73 -46 97 -22 25 25
35 19 36 -21 0 -21 2 -47 5 -58 2 -11 7 -40 10 -65 4 -25 13 -55 20 -67 8 -12
14 -30 14 -39 0 -16 53 -125 75 -154 7 -8 22 -33 35 -55 l24 -39 -27 19 c-14
11 -27 23 -27 27 0 4 -18 11 -39 14 -39 6 -40 7 -24 30 11 18 13 28 4 37 -6 8
-8 17 -4 20 5 6 -56 12 -79 8 -18 -3 -6 17 16 29 35 18 40 39 14 62 -45 40
-96 49 -123 22 -13 -14 -19 -14 -28 -4 -9 10 -9 11 1 5 11 -6 11 -3 2 12 -12
19 -11 32 16 138 7 26 -29 65 -60 65 -47 0 -70 -52 -47 -107 18 -45 11 -177
-11 -199 -24 -24 -55 -9 -79 37 -35 70 -80 66 -129 -12 -18 -28 -43 -57 -54
-64 -13 -8 -59 -15 -117 -17 l-95 -3 -1 35 c-1 37 -31 70 -65 70 -22 0 -68
-42 -68 -62 0 -8 -9 -21 -20 -30 -27 -24 -36 -5 -20 42 7 21 10 45 7 54 -18
46 -111 59 -99 14 4 -17 2 -20 -11 -15 -21 8 -21 -9 -2 -43 21 -38 18 -50 -13
-50 -15 0 -33 -5 -40 -12 -9 -9 -12 -6 -12 14 0 14 -9 37 -20 51 -11 14 -20
27 -20 30 0 3 14 19 30 36 30 29 30 31 15 60 -10 19 -27 33 -46 39 l-31 8 53
39 c40 30 55 48 57 69 4 32 -22 66 -50 66 -23 0 -23 16 2 47 22 28 26 53 10
69 -5 5 -12 43 -16 84 l-6 75 26 -47 c14 -26 26 -53 26 -60 1 -19 36 -58 53
-58 8 0 26 9 41 21 36 29 34 66 -6 99 -39 33 -31 62 9 30 31 -24 66 -26 83 -5
16 19 32 10 103 -59 26 -25 55 -46 65 -46 10 0 27 -7 38 -15 58 -44 124 30 79
89 -12 16 -22 18 -63 12 l-49 -6 -42 50 c-23 28 -47 48 -52 45 -5 -4 -9 12 -9
34 0 22 4 42 8 45 5 3 22 -8 38 -25 38 -40 75 -59 116 -59 18 0 45 -6 59 -14
37 -19 73 -10 93 25 l17 29 27 -19 c39 -27 84 -6 94 44 2 13 10 19 23 17 63
-11 104 15 105 64 0 12 11 29 25 38 20 13 25 25 25 56 l0 40 24 -16 c36 -23
68 -14 91 25 11 19 43 56 70 83 28 27 61 59 75 73 26 25 40 31 40 17z m-212
-21 c21 -2 13 -29 -14 -48 -14 -10 -38 -28 -54 -41 l-30 -24 -45 49 c-24 26
-45 51 -45 55 0 10 112 15 188 9z m398 -54 c9 -9 -69 -29 -96 -25 -24 3 -24 4
9 19 32 16 75 19 87 6z m-766 -35 c0 -5 -9 -17 -20 -27 -11 -10 -20 -28 -20
-41 0 -26 46 -74 70 -74 9 0 22 -8 30 -18 17 -21 50 -77 50 -86 0 -15 -101 51
-146 95 -49 49 -51 52 -46 95 3 29 1 44 -7 44 -6 0 -11 5 -11 10 0 6 23 10 50
10 28 0 50 -4 50 -8z m157 -16 c27 -23 27 -26 15 -58 -8 -18 -14 -39 -15 -46
-1 -23 -22 -6 -67 55 -25 34 -54 64 -65 66 -11 2 8 5 42 6 52 1 66 -3 90 -23z
m-109 -46 c5 -33 90 -120 118 -120 30 0 42 -36 20 -58 -21 -21 -50 -6 -54 29
-5 32 -80 109 -108 109 -32 0 -48 24 -34 50 16 30 54 23 58 -10z m-139 -151
c23 -23 41 -42 39 -44 -2 -1 -18 0 -35 2 -22 4 -33 11 -33 22 0 9 -7 27 -16
39 -24 35 -2 26 45 -19z m-644 -321 c-4 -13 -8 -38 -9 -55 -1 -18 -4 -33 -8
-33 -4 0 -23 -14 -42 -31 l-35 -30 -16 25 c-16 24 -15 26 42 85 62 64 80 75
68 39z m1099 -104 c9 -8 16 -19 16 -24 0 -10 -29 -40 -39 -40 -13 0 -31 24
-31 40 0 16 18 40 31 40 4 0 15 -7 23 -16z m-1207 -49 c7 -20 -2 -29 -21 -22
-9 4 -13 13 -10 22 8 19 23 19 31 0z m1120 -81 c3 -9 1 -25 -5 -35 -7 -11 -12
-60 -12 -119 l0 -100 -37 -40 -36 -41 33 -34 34 -35 143 0 c89 0 143 -4 143
-10 0 -6 -56 -10 -148 -10 l-148 0 -49 50 c-27 28 -57 50 -67 50 -11 0 -18 7
-18 20 0 26 26 26 41 -1 11 -21 12 -20 50 17 l39 38 0 97 c0 74 -4 100 -15
109 -18 15 -19 32 -3 48 17 17 48 15 55 -4z m-1017 -4 c0 -12 -47 -36 -55 -28
-3 3 -3 13 1 22 7 17 54 23 54 6z m16 -191 l28 -10 -26 -22 c-14 -12 -31 -32
-37 -44 -7 -13 -16 -23 -21 -23 -12 0 -56 59 -65 88 -6 21 -4 22 44 22 27 0
62 -5 77 -11z m1104 1 c0 -5 14 -10 30 -10 17 0 30 -4 30 -10 0 -5 -12 -10
-26 -10 -14 0 -32 -7 -40 -15 -12 -11 -20 -12 -35 -5 -19 10 -26 40 -12 53 10
11 53 8 53 -3z m-30 -105 c8 -10 31 -15 71 -15 32 0 61 -4 64 -10 4 -6 -18
-10 -60 -10 -36 0 -74 -5 -84 -12 -37 -23 -70 19 -39 50 16 16 33 15 48 -3z
m-253 -35 c13 -16 30 -30 36 -30 15 0 47 -31 47 -46 0 -14 -52 -3 -76 17 -7 6
-37 13 -65 14 -28 2 -53 6 -56 8 -10 11 56 66 80 67 5 0 20 -13 34 -30z m-732
-48 c-3 -3 -17 0 -32 7 l-27 12 25 13 c21 10 25 10 32 -7 4 -11 5 -22 2 -25z
m279 7 c-23 -24 -30 -27 -32 -14 -4 18 24 44 47 45 9 0 4 -11 -15 -31z"/>
<path d="M1340 1895 c10 -12 36 -15 124 -14 106 1 109 2 71 14 -22 8 -78 14
-124 14 -73 1 -82 -1 -71 -14z"/>
<path d="M278 1091 c-58 -65 -85 -111 -64 -111 20 0 102 98 110 133 3 15 4 27
2 27 -2 0 -24 -22 -48 -49z"/>
<path d="M2193 1621 c-37 -31 -40 -46 -16 -73 13 -15 15 -23 6 -36 -14 -22
-43 -22 -57 1 -9 14 -7 21 7 31 9 7 17 21 17 30 0 13 -10 10 -49 -16 l-50 -33
26 -27 c15 -16 33 -28 41 -28 16 0 12 -32 -5 -38 -7 -2 -16 5 -19 15 -4 10
-18 30 -31 44 l-24 27 -50 -21 -49 -21 42 -43 42 -43 88 0 c63 0 96 4 112 15
22 14 25 14 40 0 19 -20 20 -27 4 -43 -16 -16 -47 -15 -53 1 -4 9 -32 11 -103
9 l-98 -3 -47 50 c-34 37 -51 48 -67 44 -32 -8 -24 -24 45 -93 70 -69 90 -78
118 -52 22 19 52 6 52 -23 0 -29 -31 -42 -53 -22 -10 9 -27 17 -38 17 -11 0
-49 29 -84 65 l-64 65 -42 -41 -42 -41 -71 7 -71 6 0 -64 c0 -59 2 -65 19 -60
10 3 34 20 52 39 41 42 84 46 118 10 13 -14 33 -26 44 -28 32 -5 45 -34 24
-55 -20 -21 -50 -8 -55 23 -6 28 -43 64 -67 64 -11 0 -36 -16 -55 -35 -19 -20
-44 -35 -57 -35 -20 0 -23 -5 -23 -35 l0 -35 57 0 c55 0 59 -2 104 -46 26 -25
57 -51 70 -58 29 -14 33 -59 6 -64 -26 -5 -48 17 -41 42 4 16 -6 31 -38 62
-38 36 -50 42 -100 47 -56 5 -58 5 -58 -19 0 -23 3 -24 58 -24 83 0 95 -16 90
-113 -2 -53 1 -78 10 -87 19 -17 10 -44 -16 -48 -27 -4 -40 23 -24 49 7 10 12
50 12 87 0 85 -13 101 -82 100 -45 -1 -48 -3 -48 -28 0 -16 8 -34 19 -41 13
-10 20 -31 24 -71 3 -32 2 -60 -3 -63 -15 -9 -24 18 -21 66 1 26 -2 50 -8 54
-17 10 -14 -153 5 -243 15 -76 82 -230 110 -253 28 -23 15 29 -20 84 -34 53
-74 162 -63 173 14 14 38 -6 32 -25 -10 -31 11 -93 50 -147 30 -41 35 -55 30
-84 -5 -29 -2 -40 19 -60 l26 -23 0 95 c0 102 -5 113 -50 120 -30 4 -39 38
-15 58 21 18 50 1 50 -28 0 -11 8 -29 16 -39 12 -14 15 -41 13 -120 -1 -97 0
-103 24 -125 l25 -23 -5 92 c-4 70 -2 93 8 97 19 7 40 -22 26 -36 -7 -7 -12
-44 -12 -89 0 -73 2 -79 28 -99 l27 -22 3 73 c2 45 -2 82 -10 97 -22 42 21 79
46 40 8 -13 8 -23 -2 -38 -7 -12 -11 -52 -10 -107 1 -51 3 -68 5 -41 3 39 10
52 43 82 21 19 40 45 42 58 5 38 67 35 68 -4 0 -13 -32 -38 -42 -32 -5 3 -27
-11 -49 -32 -34 -33 -39 -44 -39 -82 0 -31 5 -49 18 -58 25 -19 32 -17 32 11
0 14 -4 25 -10 25 -17 0 -11 50 6 57 18 7 45 -6 51 -24 2 -6 -2 -17 -10 -25
-8 -7 -16 -26 -19 -41 -5 -26 -1 -30 61 -61 64 -32 67 -32 104 -18 21 8 36 20
34 26 -7 20 -35 18 -55 -5 -21 -22 -42 -19 -42 7 0 8 9 14 20 14 11 0 29 5 40
12 15 10 22 9 38 -5 24 -22 30 -22 77 9 l40 25 -34 -5 c-28 -5 -40 -1 -60 18
-14 13 -37 26 -50 28 -35 4 -50 33 -29 54 21 21 58 10 58 -17 0 -32 49 -68 93
-69 33 0 37 3 37 24 0 17 18 41 58 78 32 29 61 61 65 71 4 10 17 17 32 17 21
0 25 -5 25 -27 1 -28 1 -27 40 17 60 69 93 135 79 157 -9 15 -7 33 9 86 11 37
18 76 15 87 -4 14 0 20 10 20 22 0 29 -16 18 -37 -14 -27 -41 -114 -41 -135 0
-42 19 -12 43 70 19 62 29 122 33 207 7 114 6 119 -11 105 -14 -12 -16 -25
-12 -72 4 -51 3 -58 -13 -58 -16 0 -18 7 -13 63 4 49 10 66 29 82 13 12 24 28
24 38 0 25 -100 24 -123 -1 -23 -25 -24 -148 -2 -172 27 -30 -10 -75 -41 -49
-18 14 -18 48 -1 55 9 3 15 18 15 33 0 19 14 41 48 74 47 47 48 47 116 47 l67
0 -3 27 c-3 27 -3 27 -92 30 -71 2 -92 -1 -100 -13 -15 -20 -46 -8 -46 17 0
24 27 36 43 20 6 -6 48 -11 104 -11 93 0 93 0 93 25 0 24 -3 25 -55 25 -30 0
-64 -5 -74 -12 -10 -6 -26 -8 -35 -5 -20 8 -21 53 -1 61 18 6 45 -2 45 -15 0
-5 27 -9 60 -9 57 0 60 1 60 25 0 21 -5 25 -28 25 -34 0 -52 16 -52 47 0 22 -3
24 -73 38 -21 4 -72 -45 -72 -70 0 -29 -31 -43 -51 -23 -19 19 -13 46 13 54
39 13 63 28 63 41 0 16 -22 17 -71 3 -35 -10 -43 -7 -140 51 -57 33 -119 70 -136
81 l-33 20 1 -29 c0 -22 13 -38 65 -78 35 -27 72 -50 81 -50 21 0 29 -23 10
-31 -8 -3 -29 8 -48 25 -18 17 -41 31 -51 31 -10 0 -18 5 -18 11 0 6 -13 21 -30
35 -25 22 -29 33 -32 83 l-3 59 -32 -27z m46 -143 c10 -27 3 -50 -13 -45 -6 2
-23 0 -38 -4 -35 -10 -35 1 -2 40 31 37 42 39 53 9z m-189 -28 c9 -17 8 -20 -9 -20
-19 0 -35 23 -24 34 11 11 22 6 33 -14z m301 -56 c41 -28 72 -26 89 7 11 20
45 26 55 9 4 -6 10 -8 14 -6 4 3 5 -11 3 -30 -4 -30 -1 -36 17 -41 14 -3 20 -11 17 -19 -6 -15 3 -17 42 -14 12 1 22 -3 22 -9 0 -6 -6
-11 -13 -11 -20 0 -40 -45 -33 -73 6 -26 57 -54 75 -42 27 16 7 -16 -25 -43
-28 -23 -35 -35 -29 -51 4 -15 2 -21 -8 -21 -7 0 -20 -18 -27 -40 -7 -22 -19
-40 -26 -40 -21 0 -22 5 -38 113 -16 107 -97 198 -199 221 l-28 7 25 30 c17
20 25 39 22 55 -6 30 -1 30 45 -2z m350 -4 c31 -17 25 -42 -8 -34 -35 9 -37
10 -30 29 7 18 12 18 38 5z m-797 -49 c11 -12 25 -17 34 -14 11 5 14 2 9 -10
-6 -17 39 -57 65 -57 8 0 22 -6 32 -13 16 -12 16 -14 -2 -38 -32 -40 -52 -98
-52 -150 0 -36 -7 -61 -29 -97 -30 -47 -30 -49 -32 -215 -2 -176 -8 -194 -41
-126 -9 19 -22 39 -27 46 -6 7 -11 16 -11 21 0 14 -46 31 -60 22 -18 -11 -30
-3 -30 18 0 9 -13 26 -29 37 -35 23 -44 47 -26 71 11 16 14 15 35 -9 29 -34
60 -34 89 -3 21 22 22 29 12 57 -20 59 -16 71 24 63 29 -5 38 -2 55 17 29 36
25 63 -16 95 -20 16 -55 46 -77 67 -22 21 -53 41 -68 44 -33 6 -36 19 -13 51
23 33 50 27 78 -17 14 -21 31 -41 38 -43 24 -8 59 5 75 29 22 33 5 66 -45 92
-21 11 -45 27 -52 36 -12 15 -12 19 5 31 25 19 39 18 59 -5z m246 9 c0 -5 9
-10 19 -10 25 0 51 -10 51 -20 0 -4 -12 -11 -27 -15 -21 -5 -32 -2 -45 15 -20
25 -23 40 -8 40 6 0 10 -4 10 -10z m204 -110 c20 -14 49 -43 64 -64 23 -34 27
-51 30 -128 3 -54 8 -88 15 -88 6 0 19 -7 29 -17 16 -14 18 -34 18 -189 l0
-173 -26 -20 c-25 -20 -39 -21 -240 -21 -139 0 -222 4 -238 11 -38 18 -46 59
-43 222 2 149 2 149 30 172 23 21 27 31 27 82 1 103 45 183 122 222 60 31 159
26 212 -9z m-609 -276 c-3 -52 -5 -56 -25 -44 -9 6 -10 10 -3 10 9 0 9 10 -1
43 -16 54 -11 75 14 52 12 -11 16 -28 15 -61z m1020 64 c-5 -12 -11 -62 -14
-101 -2 -36 -24 -10 -28 32 -3 31 1 48 13 62 19 22 36 25 29 7z m-158 -110
c30 -1 30 -1 20 -40 -8 -32 -7 -42 8 -58 25 -28 69 -26 93 5 11 14 25 25 31
25 18 0 13 -38 -7 -49 -16 -8 -38 -104 -47 -201 -1 -14 -3 -31 -4 -37 -2 -23
-20 -14 -27 12 -12 46 -65 59 -102 25 l-22 -21 -1 173 c-1 95 -1 176 0 181 0
4 -3 7 -9 7 -5 0 -10 5 -10 12 0 6 11 1 24 -11 13 -12 37 -23 53 -23z m40
-344 c9 -23 -11 -49 -34 -47 -23 3 -139 -112 -145 -142 -4 -25 -43 -32 -52 -9
-8 20 12 47 30 40 16 -6 123 108 136 146 7 20 17 28 34 28 14 0 27 -7 31 -16z
m-114 -35 c-10 -17 -35 -43 -56 -57 -105 -73 -111 -84 -76 -134 18 -25 19 -32
8 -39 -18 -12 -49 -11 -49 0 0 16 -66 81 -83 81 -24 0 -57 -33 -62 -61 -3 -18
2 -32 20 -49 l24 -23 -40 -20 c-38 -18 -42 -19 -57 -3 -13 13 -14 20 -5 35 14
22 7 58 -15 84 -15 16 -13 20 20 47 34 28 36 33 27 63 -12 44 -12 49 9 45 9
-1 23 1 30 5 6 5 12 5 12 0 0 -8 171 -6 227 3 17 2 42 16 55 29 30 33 33 31
11 -6z"/>
<path d="M2205 1183 c-64 -17 -95 -66 -95 -155 l0 -63 131 0 131 0 -4 72 c-3
60 -8 76 -28 99 -40 42 -87 59 -135 47z m96 -59 c24 -25 36 -88 20 -108 -8
-10 -32 -13 -84 -12 -81 2 -97 8 -92 34 2 9 4 25 4 35 1 10 14 32 30 47 23 23
36 29 65 26 20 -1 46 -11 57 -22z"/>
<path d="M2196 834 c-21 -20 -21 -68 0 -85 15 -12 14 -52 -3 -95 -4 -11 6 -14
47 -14 41 0 51 3 47 14 -17 43 -18 83 -3 95 22 18 20 64 -2 84 -23 21 -66 22
-86 1z m57 -38 c3 -8 0 -20 -8 -26 -10 -8 -14 -8 -18 2 -10 29 15 52 26 24z"/>
<path d="M2250 1625 c0 -19 264 -175 296 -175 13 0 24 5 24 10 0 6 -6 10 -14
10 -24 0 -188 87 -245 129 -62 47 -61 46 -61 26z"/>
<path d="M1790 1434 c-36 -7 -82 -16 -102 -19 -32 -5 -38 -10 -38 -30 0 -24 2
-25 73 -25 71 0 74 1 110 38 36 36 45 53 30 51 -5 -1 -37 -8 -73 -15z"/>
<path d="M2760 1415 c0 -22 24 -45 46 -45 21 0 25 4 22 23 -2 17 -11 23 -35
25 -18 2 -33 0 -33 -3z"/>
<path d="M2511 348 c-64 -62 -70 -93 -8 -48 23 17 57 43 76 59 l34 28 -25 5
c-20 4 -36 -6 -77 -44z"/>
<path d="M1325 1209 c-11 -6 -106 -99 -212 -205 -106 -107 -198 -194 -205
-194 -7 0 -40 27 -73 60 -75 76 -96 78 -154 15 -44 -48 -47 -55 -30 -88 18
-35 234 -247 251 -247 17 0 78 52 165 138 39 40 53 49 53 35 0 -15 2 -15 9 -3
6 8 7 18 4 23 -3 5 38 51 91 103 53 52 96 99 96 104 0 6 6 10 13 10 12 0 74
67 109 119 23 34 8 60 -76 129 -18 14 -16 14 -41 1z m18 -191 c-49 -49 -165
-168 -260 -266 l-172 -177 -120 120 c-67 66 -121 123 -121 127 0 4 18 24 41
45 l41 39 79 -81 79 -80 216 223 217 223 44 -43 43 -42 -87 -88z"/>
</g>
</svg>
