<?xml version="1.0" standalone="no"?>
<!DOCTYPE svg PUBLIC "-//W3C//DTD SVG 20010904//EN"
 "http://www.w3.org/TR/2001/REC-SVG-20010904/DTD/svg10.dtd">
<svg version="1.0" xmlns="http://www.w3.org/2000/svg"
 width="300.000000pt" height="253.000000pt" viewBox="0 0 300.000000 253.000000"
 preserveAspectRatio="xMidYMid meet">
<metadata>
Created by potrace 1.10, written by Peter Selinger 2001-2011
</metadata>
<g transform="translate(0.000000,253.000000) scale(0.100000,-0.100000)"
fill="#000000" stroke="none">
<path d="M1584 2521 c14 -5 -5 -13 -65 -25 -204 -44 -369 -153 -479 -317 -24
-35 -45 -66 -47 -68 -2 -3 -49 -5 -106 -5 -96 -1 -106 -3 -177 -38 -83 -40
-147 -97 -195 -173 -37 -57 -43 -76 -55 -163 -8 -65 -26 -91 -62 -92 -10 0
-50 -19 -89 -42 -81 -49 -182 -152 -211 -215 -10 -23 -23 -45 -28 -48 -6 -3
-10 -16 -10 -29 0 -12 -4 -26 -9 -31 -6 -6 -12 -21 -14 -35 -3 -14 -9 -38 -13
-55 l-8 -30 -7 30 c-4 17 -7 -28 -7 -100 1 -81 3 -117 8 -95 l7 35 2 -33 c0
-18 5 -40 10 -50 5 -9 14 -35 21 -57 50 -156 150 -270 307 -349 122 -61 106
-60 738 -62 l580 -2 30 -50 c51 -85 152 -183 269 -261 42 -28 221 -123 228
-120 2 0 16 -4 31 -10 37 -14 61 -8 181 52 213 104 350 226 457 405 26 45 77
184 84 232 4 24 8 47 11 51 3 5 8 731 5 805 -1 27 -54 54 -105 54 -32 0 -40 6
-80 60 -25 33 -63 77 -85 98 -55 51 -154 102 -220 113 -61 10 -73 22 -91 93
-13 51 -76 178 -92 184 -4 2 -8 8 -8 13 0 5 -8 17 -17 27 -10 11 -37 39 -60
64 -54 58 -173 139 -243 165 -86 33 -156 53 -184 53 -29 0 -35 16 -8 23 9 3
-35 5 -98 5 -63 0 -106 -3 -96 -7z m262 -61 c43 -11 117 -39 164 -62 70 -34
102 -58 181 -137 81 -82 102 -110 141 -191 26 -52 52 -113 57 -135 10 -39 13
-41 66 -52 127 -27 265 -125 329 -235 24 -41 32 -48 59 -48 18 0 48 -3 67 -6
l35 -6 -6 -431 c-6 -469 -6 -470 -67 -601 -17 -36 -48 -91 -70 -123 -48 -70
-176 -194 -255 -246 -83 -55 -247 -131 -282 -131 -40 0 -207 80 -299 144 -86
59 -221 196 -256 258 l-24 42 -560 0 c-631 0 -643 1 -774 70 -177 92 -292 268
-308 472 -19 237 146 498 365 578 l58 21 11 71 c35 229 242 395 467 375 l60
-5 33 53 c97 160 282 290 467 330 94 21 248 18 341 -5z"/>
<path d="M1492 2400 c-182 -48 -355 -186 -432 -345 -22 -45 -23 -45 -59 -38
-20 5 -70 8 -113 7 -65 0 -86 -5 -141 -32 -130 -64 -208 -186 -211 -329 l-1
-71 -35 -6 c-19 -3 -67 -21 -107 -40 -139 -67 -245 -205 -278 -361 -18 -88
-18 -122 0 -209 33 -154 126 -282 253 -349 125 -66 135 -67 744 -67 l546 0
-14 29 c-8 16 -23 64 -34 107 -18 71 -20 120 -22 485 l-3 406 116 17 c206 28
407 101 521 189 l46 35 24 -25 c50 -53 389 -194 432 -180 6 2 -16 32 -49 66
-74 78 -174 130 -264 138 -56 5 -62 8 -67 32 -18 80 -29 113 -62 179 -119 240
-351 383 -621 381 -61 0 -123 -7 -169 -19z m264 -14 c34 -3 87 -15 118 -26 30
-12 59 -21 62 -20 4 1 10 -2 13 -7 3 -4 27 -19 53 -33 67 -35 129 -90 182
-163 25 -34 50 -66 54 -72 14 -18 61 -139 67 -175 4 -19 13 -44 20 -56 l14
-21 -36 18 c-38 20 -53 17 -99 -17 -44 -32 -151 -88 -220 -113 -69 -26 -245
-67 -332 -77 -102 -11 -97 12 -97 -408 0 -364 5 -459 29 -551 7 -27 11 -56 9
-62 -6 -17 -986 -19 -1065 -2 -126 27 -219 87 -300 193 -64 83 -106 234 -92
326 21 142 50 204 138 297 66 71 153 125 217 137 57 10 76 39 77 118 2 200
198 357 399 320 70 -12 89 -1 135 78 72 124 208 236 346 285 71 26 175 44 222
39 14 -2 53 -5 86 -8z m719 -603 c55 -18 155 -77 155 -93 0 -15 -19 -12 -75 8
-117 44 -208 96 -183 104 15 6 35 2 103 -19z"/>
<path d="M1295 1498 c-20 -11 -48 -39 -237 -237 l-106 -112 -39 33 c-21 18
-49 43 -63 56 -14 12 -33 25 -43 28 -21 7 -66 -24 -102 -72 -28 -36 -28 -37
-10 -69 19 -37 187 -205 223 -224 13 -7 34 -10 46 -7 12 3 82 67 156 143 74
75 170 172 213 215 42 43 77 83 77 87 0 5 7 14 15 21 25 21 17 49 -27 95 -48
49 -74 59 -103 43z m79 -57 l48 -49 -233 -241 c-129 -133 -237 -240 -241 -239
-9 4 -238 230 -238 236 0 7 72 86 83 91 5 2 42 -29 81 -68 l72 -72 86 88 c46
48 129 136 184 195 54 59 101 107 104 107 3 1 28 -21 54 -48z"/>
<path d="M2205 1708 c-115 -73 -301 -137 -468 -161 l-88 -12 1 -372 c0 -373 4
-425 35 -518 76 -224 284 -419 561 -525 15 -6 44 2 106 29 244 108 423 291
496 508 l27 78 3 403 3 402 -31 0 c-131 0 -449 106 -555 184 l-30 23 -60 -39z
m132 -42 c160 -82 328 -136 460 -150 54 -6 53 -1 53 -372 0 -342 -5 -402 -38
-494 -31 -88 -89 -180 -154 -248 -95 -98 -152 -140 -275 -201 -115 -58 -115
-58 -222 -5 -260 127 -426 323 -470 554 -6 31 -12 206 -13 399 -1 324 0 345
17 358 11 7 30 13 44 13 97 1 360 86 455 148 28 18 55 32 62 32 7 0 43 -16 81
-34z"/>
<path d="M2207 1379 c-118 -28 -192 -121 -204 -256 -4 -51 -12 -77 -31 -102
-24 -32 -25 -40 -28 -205 -2 -94 0 -188 5 -209 11 -47 44 -77 85 -77 72 -1
298 -2 392 -1 101 1 102 1 133 33 l31 32 -3 196 -2 196 -28 33 c-16 20 -27 45
-28 64 -3 166 -79 271 -214 296 -32 6 -61 11 -64 10 -3 -1 -23 -5 -44 -10z
m162 -49 c86 -44 125 -114 125 -226 1 -79 2 -82 28 -92 l27 -10 3 -198 c2
-122 -1 -206 -7 -218 -10 -20 -19 -21 -274 -24 -186 -2 -268 1 -277 9 -22 18
-20 411 2 433 8 9 21 16 27 16 8 0 12 26 12 83 1 88 14 127 64 180 69 75 180
94 270 47z"/>
<path d="M2193 1254 c-50 -25 -66 -59 -73 -151 l-5 -83 150 0 150 0 -5 77 c-6
84 -14 104 -54 142 -34 32 -116 39 -163 15z m127 -28 c8 -3 25 -22 38 -40 18
-26 22 -45 20 -82 l-3 -49 -104 -3 c-115 -3 -121 0 -121 56 0 53 25 101 62
117 32 14 77 14 108 1z"/>
<path d="M2242 889 c-12 -5 -27 -20 -33 -33 -10 -21 -8 -30 7 -53 10 -15 18
-30 17 -33 0 -3 -3 -24 -7 -46 l-6 -42 45 -4 c49 -3 48 -4 36 59 -7 35 -5 45
10 59 23 21 24 42 4 71 -18 25 -43 33 -73 22z m48 -54 c0 -24 -12 -45 -25 -45
-19 0 -29 38 -15 55 13 16 40 9 40 -10z"/>
<path d="M2993 1340 c0 -41 2 -58 4 -37 2 20 2 54 0 75 -2 20 -4 3 -4 -38z"/>
<path d="M2993 965 c0 -44 2 -61 4 -37 2 23 2 59 0 80 -2 20 -4 1 -4 -43z"/>
</g>
</svg>
